<svg width="35" height="35" viewBox="0 0 35 35" fill="none" xmlns="http://www.w3.org/2000/svg">
<path d="M18.3747 11.9693L18.3765 11.934C18.3757 11.934 18.3749 11.934 18.3742 11.9339C18.3734 11.9339 18.3727 11.9338 18.3719 11.9338L18.3702 11.9693H18.3747ZM18.3747 11.9693L18.3241 12.9327L18.3747 11.9693ZM16.1747 12.9198H16.7209C16.4795 12.9215 16.2809 12.9227 16.1747 12.9198ZM16.1747 12.9198L16.1469 13.9194C16.1557 13.9196 16.165 13.9198 16.1747 13.92V12.9198ZM21.8674 20.9514C22.1432 20.1817 22.1069 19.228 21.5472 18.4661C21.0869 17.8076 20.3292 17.3501 19.328 17.2195C19.6437 17.115 19.9198 16.9742 20.1608 16.8064C20.6246 16.4884 20.9556 16.0245 21.1297 15.5271C21.3882 14.8002 21.3657 13.8806 20.8215 13.1425C20.3606 12.4915 19.5953 12.047 18.5826 11.949L18.5801 10.9668L18.5774 9.92462H18.6842V10.968V11.9507L19.6666 11.9679L19.6666 11.9679H19.6667L19.667 11.9679L19.6689 11.9679L19.6772 11.9681L19.7091 11.9688C19.7364 11.9694 19.7734 11.9703 19.8131 11.9716C19.8533 11.9728 19.8934 11.9744 19.9276 11.9761C19.9548 11.9774 19.9696 11.9785 19.9746 11.9789C19.9749 11.9789 19.9753 11.9789 19.9755 11.9789L19.9862 11.98C20.4652 12.0274 21.1383 12.2484 21.6691 12.6569C22.1759 13.047 22.5037 13.5612 22.5037 14.2515C22.5037 14.7539 22.3894 15.0764 22.2302 15.3238C22.0595 15.5891 21.7929 15.8366 21.3798 16.1202L19.7703 17.2255L21.6078 17.8857C21.9023 17.9915 22.3853 18.2607 22.7783 18.6855C23.1578 19.0958 23.4201 19.6108 23.4105 20.2519L23.4105 20.2575C23.3957 21.853 21.8579 23.0863 19.7092 23.0297L18.6829 23.0027V24.0294V25.0805H18.5852V24.0216V23.0216H17.5852H16.176H15.176V24.0216V25.0767H15.0306V24.01V23.01H14.0306H12.674L12.6843 22.959C12.6936 22.9586 12.7028 22.9583 12.712 22.9579L12.7371 22.9567L12.7621 22.9544C13.1301 22.9195 13.4731 22.7526 13.7275 22.4844C13.982 22.2163 14.1307 21.865 14.1462 21.4957L14.1471 21.4747V21.4538V13.681C14.1697 13.2291 14.0198 12.7414 13.6429 12.3631C13.4715 12.1909 13.2717 12.0597 13.0527 11.9654C13.4967 11.9642 13.9005 11.9623 14.0494 11.9587L15.0254 11.9353V10.959V9.93237H15.1696V10.9693V11.9693H15.1747V12.9198V16.4189V17.2716L15.176 17.2718V18.1665V21.9511V22.9531L16.1781 22.9511L18.7485 22.9459L18.7715 22.9459L18.7945 22.9448C19.6625 22.903 20.3375 22.6579 20.855 22.2946C21.3258 21.965 21.6807 21.4952 21.869 20.9522L21.8674 20.9514ZM18.9131 18.1859L18.9568 17.321L18.955 17.3214L18.9131 18.1859ZM17.5 34C26.6122 34 34 26.6122 34 17.5C34 8.38784 26.6122 1 17.5 1C8.38784 1 1 8.38784 1 17.5C1 26.6122 8.38784 34 17.5 34Z" fill="#FFAE00" stroke="white" stroke-width="2"/>
</svg>
