<svg width="35" height="35" viewBox="0 0 35 35" fill="none" xmlns="http://www.w3.org/2000/svg">
<path d="M18.6918 24.9145L17.8384 25.041V25.9037V27.0868H17.7503V25.9283V25.0559L16.886 24.9375C15.4318 24.7384 14.3845 24.0436 13.6902 23.3846C13.4826 23.1876 13.3084 22.9953 13.1667 22.8235L13.7927 22.2998C13.9312 22.4545 14.0905 22.6185 14.2703 22.7829C15.0249 23.4726 16.2113 24.2301 17.7815 24.2301C18.6296 24.2301 19.4629 24.004 20.1076 23.4956C20.7761 22.9684 21.1747 22.186 21.1747 21.2572C21.1747 19.9897 20.2901 19.2056 19.4808 18.6986C18.9142 18.3436 18.1882 18.0091 17.497 17.6907C17.2187 17.5624 16.946 17.4368 16.6917 17.3135C14.7478 16.3711 13.3362 15.3549 13.3362 13.3035C13.3362 11.5977 14.6709 10.2041 16.9037 9.85496L17.7492 9.72274V8.86697V7.68605H17.8373V8.86697V9.74401L18.7069 9.85842C19.4991 9.96266 20.3065 10.2188 20.8868 10.6178C21.4411 10.999 21.7321 11.4602 21.7321 12.0589V12.6074H20.9476C20.8526 11.8729 20.3462 11.3567 19.8387 11.0587C19.2711 10.7255 18.5656 10.5662 17.8733 10.5662C17.0142 10.5662 16.1941 10.7795 15.5582 11.2181C14.9081 11.6664 14.4343 12.373 14.4343 13.2555C14.4343 14.5439 15.3214 15.3184 16.146 15.8112C16.7058 16.1458 17.4268 16.4568 18.1101 16.7515C18.3973 16.8754 18.6779 16.9964 18.9371 17.1151C19.8922 17.5526 20.7256 18.0206 21.3229 18.6495C21.8876 19.244 22.2728 20.0148 22.2728 21.1633C22.2728 22.9435 20.9498 24.5799 18.6918 24.9145ZM12.7034 22.169C12.7031 22.1684 12.7031 22.1685 12.7035 22.1692L12.7034 22.169ZM17.5 1C8.3872 1 1 8.3872 1 17.5C1 26.6128 8.3872 34 17.5 34C26.6128 34 34 26.6128 34 17.5C34 8.3872 26.6128 1 17.5 1Z" fill="#12D800" stroke="white" stroke-width="2"/>
</svg>
