<svg width="35" height="35" viewBox="0 0 35 35" fill="none" xmlns="http://www.w3.org/2000/svg">
<path d="M10.2248 17.4527L10.2249 17.4526L17.4338 7.36012C17.4413 7.34959 17.4513 7.34101 17.4628 7.33509C17.4743 7.32917 17.4871 7.32608 17.5 7.32608C17.5129 7.32608 17.5257 7.32917 17.5372 7.33509C17.5487 7.34097 17.5585 7.34948 17.5661 7.35992C17.5661 7.35999 17.5662 7.36006 17.5662 7.36012L24.7751 17.4526L24.7752 17.4527C24.785 17.4665 24.7903 17.483 24.7903 17.5C24.7903 17.517 24.785 17.5335 24.7752 17.5473L24.7751 17.5474L17.5662 27.6399C17.5661 27.64 17.5661 27.6401 17.566 27.6402C17.5585 27.6506 17.5486 27.659 17.5372 27.6649C17.5257 27.6708 17.5129 27.6739 17.5 27.6739C17.4871 27.6739 17.4743 27.6708 17.4628 27.6649C17.4513 27.659 17.4414 27.6505 17.4339 27.64C17.4339 27.64 17.4338 27.6399 17.4338 27.6399L10.2249 17.5474L10.2248 17.5473C10.215 17.5335 10.2097 17.517 10.2097 17.5C10.2097 17.483 10.215 17.4665 10.2248 17.4527ZM16.6862 26.3142L17.5 27.4538L18.3138 26.3142L23.0532 19.6773L24.5225 17.6197L22.0433 18.1156L17.5158 19.021L17.512 19.0218C17.5026 19.0237 17.4974 19.0237 17.488 19.0218L17.4842 19.021L12.9567 18.1156L10.4775 17.6197L11.9468 19.6773L16.6862 26.3142ZM17.5814 17.6226V18.8423L18.7774 18.6032L23.054 17.7481L24.5708 17.4449L23.6717 16.1863L19.3951 10.1997L17.5814 7.66071V10.7809V17.6226ZM16.2226 18.6032L17.4186 18.8423V17.6226V10.7809V7.66071L15.6049 10.1997L11.3283 16.1863L10.4292 17.4449L11.946 17.7481L16.2226 18.6032ZM17.5 1C8.38739 1 1 8.38739 1 17.5C1 26.6126 8.38739 34 17.5 34C26.6126 34 34 26.6126 34 17.5C34 8.38739 26.6126 1 17.5 1Z" fill="#353535" stroke="white" stroke-width="2"/>
</svg>
